<svg width="512" height="512" viewBox="0 0 512 512" xmlns="http://www.w3.org/2000/svg">
  <!-- Clipboard background -->
  <rect x="96" y="64" width="320" height="400" rx="20" fill="#4A90E2" stroke="#2E5C8A" stroke-width="8"/>
  
  <!-- Clipboard clip -->
  <rect x="192" y="32" width="128" height="64" rx="8" fill="#2E5C8A"/>
  <rect x="208" y="16" width="96" height="48" rx="8" fill="#5BA3F5"/>
  
  <!-- Paper sheets -->
  <rect x="128" y="96" width="256" height="320" rx="8" fill="#FFFFFF" opacity="0.95"/>
  
  <!-- Hero badge -->
  <circle cx="320" cy="320" r="80" fill="#FFD700" stroke="#FFA500" stroke-width="6"/>
  <path d="M320 280 L330 310 L360 310 L335 330 L345 360 L320 340 L295 360 L305 330 L280 310 L310 310 Z" fill="#FF6B6B"/>
  
  <!-- List lines -->
  <rect x="160" y="140" width="120" height="8" rx="4" fill="#4A90E2" opacity="0.7"/>
  <rect x="160" y="170" width="160" height="8" rx="4" fill="#4A90E2" opacity="0.7"/>
  <rect x="160" y="200" width="140" height="8" rx="4" fill="#4A90E2" opacity="0.7"/>
  
  <!-- Shadow -->
  <ellipse cx="256" cy="480" rx="120" ry="20" fill="#000000" opacity="0.2"/>
</svg>